<svg width="309" height="299" viewBox="0 0 309 299" fill="none" xmlns="http://www.w3.org/2000/svg">
<path d="M256.839 298.444C256.839 298.545 206.883 298.631 145.281 298.631C83.678 298.631 33.7008 298.545 33.7008 298.444C33.7008 298.343 83.6492 298.257 145.281 298.257C206.912 298.257 256.839 298.35 256.839 298.444Z" fill="#263238"/>
<path d="M208.164 210.374C197.049 202.612 194.531 188.202 194.97 175.246C195.042 173.087 194.805 170.8 195.833 168.908C196.862 167.016 199.265 165.714 201.2 166.62C202.804 167.375 203.502 169.246 204.402 170.793C205.601 172.853 207.36 174.531 209.473 175.634C210.847 176.354 212.552 176.785 213.912 176.037C215.783 175.008 215.998 172.44 215.984 170.282C215.984 166.267 215.96 162.258 215.912 158.253C215.783 156.103 216.001 153.946 216.56 151.865C217.229 149.822 218.718 147.93 220.754 147.354C222.79 146.779 225.329 147.966 225.79 150.066C225.869 150.956 225.89 151.85 225.854 152.743C225.912 153.642 226.329 154.627 227.171 154.901C228.012 155.174 228.89 154.548 229.538 153.915C231.753 151.757 233.264 148.944 234.667 146.167C236.07 143.39 237.444 140.534 239.458 138.167C241.473 135.801 244.257 133.923 247.372 133.743C250.487 133.563 253.731 135.477 254.508 138.498C255.285 141.52 253.523 144.606 251.631 147.059C248.776 150.701 245.41 153.911 241.638 156.591C240.902 156.993 240.314 157.621 239.962 158.383C239.494 159.822 240.854 161.26 242.271 161.714C243.875 162.246 245.616 162.081 247.307 162.282C248.998 162.483 250.796 163.217 251.436 164.8C252.314 167.001 250.472 169.303 248.667 170.814C245.041 173.836 240.924 176.213 236.494 177.843C234.912 178.418 233.25 178.929 231.969 180.037C230.689 181.145 229.926 183.08 230.696 184.598C231.466 186.116 233.444 186.598 235.106 186.289C236.768 185.979 238.242 185.087 239.825 184.49C242.782 183.375 246.595 183.576 248.458 186.13C249.035 187.01 249.401 188.012 249.525 189.056C249.65 190.101 249.531 191.161 249.177 192.152C248.457 194.124 247.349 195.932 245.919 197.468C241.207 203.098 235.085 207.375 228.178 209.863C221.322 212.238 214.97 212.885 208.157 210.389" fill="#4CAF4F"/>
<path d="M251.343 135.52C251.343 135.52 251.278 135.592 251.134 135.721L250.494 136.29C249.933 136.793 249.105 137.527 248.062 138.498C245.105 141.244 242.358 144.21 239.847 147.369C238.242 149.361 236.581 151.62 234.811 154.073C233.041 156.527 231.214 159.174 229.401 161.987C227.468 164.953 225.698 168.022 224.099 171.181C223.264 172.828 222.531 174.548 221.775 176.303L219.545 181.663C216.605 188.414 214.045 195.324 211.876 202.36C210.129 208.117 208.925 214.025 208.279 220.007C207.861 224.044 207.793 228.109 208.078 232.158C208.193 233.597 208.301 234.697 208.401 235.446C208.445 235.805 208.473 236.093 208.502 236.302V236.597C208.471 236.503 208.45 236.407 208.437 236.309C208.401 236.1 208.358 235.82 208.301 235.46C208.171 234.741 208.035 233.604 207.905 232.165C207.558 228.109 207.582 224.03 207.977 219.978C208.583 213.971 209.761 208.035 211.495 202.252C213.646 195.196 216.199 188.269 219.142 181.504L221.43 176.166C222.185 174.418 222.926 172.685 223.768 171.03C225.378 167.862 227.163 164.785 229.113 161.814C230.955 158.937 232.811 156.332 234.559 153.901C236.307 151.469 237.998 149.196 239.595 147.21C242.132 144.06 244.915 141.115 247.918 138.405C248.983 137.448 249.832 136.729 250.408 136.247L251.077 135.707C251.159 135.636 251.248 135.573 251.343 135.52Z" fill="#263238"/>
<path d="M223.862 171.016C223.76 170.719 223.69 170.413 223.653 170.102C223.538 169.505 223.408 168.663 223.257 167.57C222.948 165.411 222.631 162.455 222.293 159.181C221.955 155.908 221.574 152.944 221.257 150.807C221.092 149.743 220.948 148.887 220.847 148.289C220.769 147.984 220.728 147.67 220.725 147.354C220.849 147.642 220.938 147.944 220.991 148.254C221.149 148.843 221.329 149.692 221.531 150.764C221.941 152.922 222.344 155.858 222.682 159.138C223.02 162.419 223.308 165.296 223.531 167.534C223.639 168.541 223.732 169.397 223.804 170.08C223.86 170.389 223.879 170.703 223.862 171.016Z" fill="#263238"/>
<path d="M251.544 165.85C251.194 165.926 250.838 165.97 250.48 165.98C249.76 166.044 248.739 166.131 247.472 166.275C244.94 166.548 241.458 167.052 237.638 167.771C233.818 168.49 230.387 169.303 227.919 169.929C226.689 170.246 225.696 170.534 225.041 170.728C224.692 170.852 224.33 170.939 223.962 170.987C224.295 170.82 224.641 170.682 224.998 170.577C225.674 170.339 226.653 170.008 227.876 169.656C230.329 168.936 233.761 168.08 237.595 167.347C240.843 166.726 244.121 166.269 247.415 165.98C248.688 165.872 249.717 165.829 250.436 165.814C250.806 165.789 251.177 165.801 251.544 165.85Z" fill="#263238"/>
<path d="M211.847 201.749C211.771 201.644 211.708 201.531 211.66 201.411L211.186 200.411C210.776 199.54 210.222 198.252 209.56 196.677C208.222 193.511 206.517 189.08 204.704 184.159C202.891 179.238 201.222 174.807 199.956 171.606C199.337 170.052 198.826 168.778 198.445 167.829L198.042 166.8C197.986 166.681 197.947 166.555 197.927 166.426C198.004 166.53 198.066 166.644 198.114 166.764L198.589 167.764C198.992 168.634 199.553 169.922 200.215 171.498C201.553 174.663 203.258 179.095 205.071 184.015C206.884 188.936 208.553 193.368 209.819 196.569C210.437 198.123 210.948 199.396 211.322 200.346C211.488 200.756 211.624 201.065 211.732 201.375C211.788 201.493 211.827 201.619 211.847 201.749Z" fill="#263238"/>
<path d="M248.595 189.9C248.48 189.966 248.356 190.017 248.228 190.051L247.163 190.411L243.228 191.684C239.904 192.763 235.315 194.303 230.279 196.001C225.243 197.698 220.631 199.209 217.286 200.216C215.617 200.727 214.257 201.116 213.315 201.375L212.229 201.655C212.102 201.695 211.972 201.722 211.84 201.734C211.955 201.668 212.079 201.617 212.207 201.583L213.272 201.223L217.207 199.95C220.531 198.871 225.121 197.331 230.156 195.634C235.192 193.936 239.796 192.425 243.142 191.418C244.818 190.907 246.17 190.519 247.12 190.26L248.206 189.979C248.333 189.939 248.463 189.913 248.595 189.9Z" fill="#263238"/>
<path d="M233.602 15.3936L229.897 16.7173L228.307 11.8757C225.387 2.94786 216.078 -1.79303 207.524 1.22128C198.97 4.2356 194.416 14.0267 197.337 22.9545L198.927 27.7962L195.208 29.1271C193.789 29.6771 192.638 30.7526 191.992 32.1299C191.346 33.5073 191.256 35.0805 191.74 36.5226L202.049 68.0253C202.263 68.7392 202.618 69.4028 203.094 69.9767C203.569 70.5505 204.155 71.023 204.817 71.3659C205.479 71.7088 206.203 71.9152 206.946 71.9729C207.689 72.0305 208.436 71.9383 209.142 71.7015L247.537 57.968C248.974 57.4189 250.142 56.3339 250.796 54.9412C251.449 53.5485 251.537 51.9567 251.041 50.5006L240.724 18.9978C240.505 18.2859 240.144 17.6256 239.664 17.0561C239.183 16.4867 238.593 16.0199 237.929 15.6835C237.264 15.3471 236.538 15.1481 235.795 15.0983C235.052 15.0485 234.306 15.1489 233.602 15.3936ZM204.337 20.4294C203.549 18.1081 203.691 15.572 204.731 13.3525C205.772 11.1331 207.631 9.40246 209.919 8.52326C211.049 8.13667 212.246 7.98165 213.437 8.06743C214.628 8.15322 215.789 8.47806 216.852 9.02258C217.915 9.56709 218.857 10.3201 219.623 11.2367C220.388 12.1533 220.961 13.2148 221.308 14.3576L222.89 19.1992L205.92 25.271L204.337 20.4294ZM225.919 48.3856L228.552 56.4285C228.6 56.5898 228.585 56.7635 228.508 56.9135C228.432 57.0636 228.301 57.1784 228.142 57.2342L224.451 58.5508C224.305 58.5915 224.148 58.5738 224.014 58.5014C223.879 58.4289 223.779 58.3074 223.732 58.1623L221.077 50.1553C219.614 50.0755 218.209 49.5505 217.052 48.6505C215.895 47.7505 215.04 46.5185 214.603 45.1195C213.977 43.2698 214.091 41.2498 214.921 39.4824C215.751 37.715 217.233 36.3373 219.056 35.6377C219.956 35.3302 220.909 35.207 221.857 35.2755C222.806 35.344 223.731 35.6028 224.578 36.0365C225.424 36.4702 226.175 37.0699 226.785 37.7998C227.395 38.5297 227.851 39.3749 228.128 40.285C228.59 41.7063 228.629 43.2316 228.238 44.6743C227.847 46.1169 227.043 47.4142 225.926 48.4071L225.919 48.3856Z" fill="#4CAF4F"/>
<path d="M229.732 16.631C229.732 16.7317 222.862 19.3144 214.315 22.3862C205.768 25.4581 198.797 27.9257 198.761 27.8537C198.725 27.7818 205.632 25.1775 214.186 22.0985C222.739 19.0194 229.696 16.5375 229.732 16.631Z" fill="#263238"/>
<path d="M237.89 17.9547C237.922 18.0171 237.948 18.0821 237.969 18.1489C238.027 18.2928 238.091 18.4799 238.178 18.7101C238.365 19.2353 238.624 19.9619 238.947 20.8683L241.71 28.9113C242.861 32.3213 244.235 36.3643 245.76 40.8534C246.48 43.1052 247.329 45.4504 248.12 47.918C248.543 49.1896 248.726 50.5289 248.659 51.8675C248.598 52.5637 248.4 53.2409 248.077 53.8603C247.731 54.4776 247.269 55.0223 246.717 55.4646C245.606 56.2759 244.372 56.9049 243.062 57.3278L239.358 58.6587L232.343 61.1694L220.466 65.3996L212.445 68.2196L210.286 68.939L209.711 69.1261C209.649 69.1534 209.584 69.1705 209.517 69.1764C209.517 69.1764 209.574 69.1764 209.696 69.0901L210.258 68.8671L212.416 68.0542L220.394 65.119L232.25 60.8025L239.25 58.2702L242.955 56.9321C244.227 56.5264 245.425 55.9165 246.501 55.1264C247.015 54.7161 247.445 54.2104 247.767 53.6373C248.072 53.0645 248.256 52.4351 248.307 51.7884C248.373 50.4986 248.197 49.2079 247.789 47.9827C247.012 45.5367 246.192 43.1699 245.451 40.9182C243.955 36.4219 242.573 32.3644 241.48 28.9544C240.386 25.5444 239.465 22.8035 238.832 20.8755C238.53 19.9331 238.3 19.1993 238.113 18.6669L237.94 18.0914C237.919 18.0478 237.902 18.002 237.89 17.9547Z" fill="#263238"/>
<path d="M217.632 8.03413C217.632 8.03413 217.25 7.84709 216.545 7.55933C215.54 7.1732 214.477 6.95918 213.401 6.92625C211.806 6.87156 210.219 7.17131 208.754 7.80392C206.972 8.59165 205.449 9.86579 204.358 11.4801C203.261 13.0898 202.672 14.992 202.668 16.9404C202.683 18.5373 202.925 20.1239 203.387 21.6525C203.761 22.9618 204.15 24.005 204.409 24.7316C204.562 25.1006 204.687 25.4806 204.783 25.8682C204.579 25.5231 204.408 25.1594 204.272 24.7819C203.977 24.0625 203.553 23.041 203.135 21.7244C202.623 20.1798 202.344 18.5673 202.308 16.9404C202.289 14.9184 202.892 12.9394 204.035 11.2715C205.163 9.5982 206.749 8.28466 208.603 7.48738C210.114 6.85131 211.751 6.57072 213.387 6.66726C214.486 6.72329 215.566 6.97927 216.574 7.42264C216.843 7.54692 217.103 7.69121 217.351 7.85428C217.453 7.89924 217.548 7.95992 217.632 8.03413Z" fill="#263238"/>
<path d="M217.962 36.1845C218.077 36.1149 218.198 36.0548 218.322 36.0046C218.682 35.8421 219.055 35.7098 219.437 35.609C220.044 35.43 220.669 35.3237 221.3 35.2924C222.159 35.2463 223.019 35.376 223.826 35.6737C225.667 36.3212 227.358 38.1988 228.192 40.7096C228.593 42.0569 228.593 43.4916 228.192 44.839C227.749 46.3013 226.953 47.6327 225.876 48.7165L225.919 48.5223C226.876 51.1481 227.919 53.997 228.998 56.9681L229.063 57.148L228.883 57.2127L227.236 57.7595L223.639 58.9609L223.459 59.0184L223.401 58.8386C222.416 55.8603 221.336 53.0833 220.524 50.3568L220.682 50.4791C219.275 50.3623 217.934 49.8344 216.826 48.9611C215.823 48.1886 215 47.2066 214.416 46.0835C213.888 45.0876 213.626 43.9728 213.653 42.8462C213.686 41.6947 213.974 40.5649 214.495 39.5376C215.016 38.5103 215.758 37.6109 216.668 36.9039C217.042 36.6 217.462 36.3572 217.912 36.1845C217.506 36.4256 217.112 36.6873 216.732 36.9686C215.733 37.8138 214.968 38.9013 214.509 40.1268C214.116 41.051 213.932 42.0509 213.97 43.0546C214.009 44.0584 214.269 45.0412 214.732 45.9324C215.307 47.0128 216.11 47.9554 217.085 48.695C218.142 49.525 219.421 50.0254 220.761 50.1338H220.883L220.919 50.2417C221.711 52.9179 222.797 55.7164 223.797 58.7091L223.559 58.594L227.156 57.3926L228.797 56.8386L228.682 57.0832C227.61 54.1121 226.574 51.2561 225.624 48.6302V48.5223L225.71 48.436C226.756 47.3971 227.536 46.1212 227.984 44.7167C228.365 43.4278 228.365 42.056 227.984 40.7671C227.2 38.3499 225.581 36.5154 223.826 35.868C223.049 35.5683 222.219 35.4289 221.387 35.4579C220.765 35.4721 220.148 35.5566 219.545 35.7097C218.473 35.9759 217.97 36.2205 217.962 36.1845Z" fill="#263238"/>
<path d="M195.726 243.906L123.864 243.575C119.714 243.552 115.743 241.883 112.823 238.934C109.902 235.986 108.272 231.999 108.289 227.849L109.051 47.7022C109.06 45.6461 109.474 43.6119 110.269 41.7159C111.064 39.8198 112.225 38.099 113.685 36.6518C115.146 35.2047 116.877 34.0596 118.78 33.2819C120.684 32.5043 122.722 32.1094 124.778 32.1198L196.632 32.4508C200.782 32.4717 204.754 34.1389 207.676 37.0862C210.597 40.0334 212.23 44.0198 212.214 48.1698L211.452 228.309C211.443 230.366 211.03 232.401 210.235 234.298C209.44 236.194 208.279 237.916 206.819 239.365C205.359 240.813 203.627 241.959 201.724 242.738C199.82 243.518 197.782 243.914 195.726 243.906Z" fill="#455A64"/>
<path d="M196.524 38.6448H182.596C182.142 38.6532 181.694 38.7511 181.277 38.9328C180.86 39.1146 180.484 39.3766 180.168 39.7039C179.853 40.0313 179.605 40.4176 179.439 40.8407C179.273 41.2638 179.192 41.7155 179.201 42.1699V44.695C179.209 45.1491 179.128 45.6004 178.962 46.0231C178.796 46.4458 178.548 46.8316 178.233 47.1584C177.917 47.4852 177.541 47.7465 177.124 47.9275C176.707 48.1084 176.259 48.2054 175.805 48.2129L148.655 48.0906C147.736 48.0661 146.865 47.6781 146.232 47.0118C145.6 46.3454 145.258 45.4553 145.281 44.5368V42.0116C145.304 41.0943 144.963 40.2052 144.332 39.5391C143.701 38.873 142.831 38.4841 141.914 38.4578H137.015L124.821 38.4002C121.92 38.383 119.131 39.5157 117.064 41.5503C114.997 43.585 113.821 46.3558 113.792 49.2561L113.073 225.093C113.066 226.532 113.343 227.958 113.888 229.29C114.432 230.622 115.234 231.833 116.246 232.856C117.259 233.878 118.463 234.69 119.79 235.247C121.117 235.804 122.54 236.094 123.979 236.1L195.69 236.431C197.129 236.438 198.556 236.161 199.889 235.616C201.222 235.071 202.434 234.269 203.457 233.256C204.48 232.242 205.293 231.037 205.85 229.71C206.407 228.382 206.697 226.958 206.704 225.518L207.423 49.6805C207.44 46.7721 206.302 43.9758 204.258 41.9064C202.214 39.837 199.432 38.6638 196.524 38.6448Z" fill="white"/>
<path d="M186.877 212.971L133.554 212.741C133 212.741 132.554 212.137 132.562 211.403L132.619 197.454C132.619 196.734 133.072 196.116 133.626 196.116L186.949 196.36C187.256 196.413 187.53 196.583 187.715 196.834C187.9 197.084 187.981 197.397 187.942 197.706L187.891 211.641C187.891 212.381 187.431 212.979 186.877 212.971Z" fill="#4CAF4F"/>
<path d="M149.766 206.294C149.472 206.294 149.189 206.247 148.917 206.153C148.65 206.055 148.442 205.93 148.295 205.779L148.459 205.457C148.599 205.592 148.785 205.707 149.019 205.802C149.257 205.892 149.506 205.938 149.766 205.938C150.016 205.938 150.217 205.907 150.372 205.847C150.531 205.783 150.646 205.698 150.717 205.592C150.793 205.487 150.831 205.37 150.831 205.241C150.831 205.087 150.785 204.962 150.695 204.868C150.608 204.774 150.493 204.7 150.349 204.647C150.206 204.591 150.048 204.542 149.874 204.5C149.7 204.459 149.527 204.415 149.353 204.37C149.18 204.321 149.019 204.257 148.872 204.177C148.729 204.098 148.612 203.994 148.521 203.866C148.434 203.734 148.391 203.562 148.391 203.351C148.391 203.155 148.442 202.976 148.544 202.813C148.65 202.647 148.81 202.515 149.025 202.417C149.24 202.315 149.516 202.264 149.851 202.264C150.074 202.264 150.295 202.296 150.514 202.361C150.732 202.421 150.921 202.506 151.08 202.615L150.938 202.949C150.768 202.836 150.587 202.753 150.395 202.7C150.206 202.647 150.023 202.621 149.846 202.621C149.608 202.621 149.412 202.653 149.257 202.717C149.102 202.781 148.987 202.868 148.912 202.977C148.84 203.083 148.804 203.204 148.804 203.34C148.804 203.494 148.848 203.619 148.934 203.713C149.025 203.808 149.142 203.881 149.285 203.934C149.433 203.987 149.593 204.034 149.766 204.076C149.94 204.117 150.112 204.162 150.282 204.211C150.455 204.26 150.614 204.325 150.757 204.404C150.904 204.479 151.021 204.581 151.108 204.709C151.198 204.838 151.244 205.006 151.244 205.213C151.244 205.406 151.191 205.585 151.085 205.751C150.98 205.913 150.817 206.045 150.598 206.147C150.383 206.245 150.106 206.294 149.766 206.294ZM152.156 206.26V202.298H152.575V206.26H152.156ZM153.864 206.26V202.298H154.209L156.943 205.74H156.762V202.298H157.175V206.26H156.83L154.102 202.819H154.283V206.26H153.864ZM160.206 206.294C159.904 206.294 159.625 206.245 159.368 206.147C159.116 206.045 158.895 205.904 158.706 205.723C158.521 205.541 158.376 205.328 158.27 205.083C158.168 204.838 158.118 204.57 158.118 204.279C158.118 203.989 158.168 203.721 158.27 203.476C158.376 203.23 158.523 203.017 158.712 202.836C158.9 202.655 159.121 202.515 159.374 202.417C159.631 202.315 159.91 202.264 160.212 202.264C160.514 202.264 160.789 202.312 161.038 202.406C161.291 202.5 161.506 202.644 161.683 202.836L161.423 203.102C161.257 202.936 161.074 202.817 160.874 202.745C160.674 202.674 160.459 202.638 160.229 202.638C159.983 202.638 159.757 202.679 159.55 202.762C159.346 202.842 159.167 202.957 159.012 203.108C158.861 203.255 158.742 203.428 158.655 203.628C158.572 203.825 158.531 204.042 158.531 204.279C158.531 204.513 158.572 204.73 158.655 204.93C158.742 205.13 158.861 205.306 159.012 205.457C159.167 205.604 159.346 205.719 159.55 205.802C159.757 205.881 159.982 205.921 160.223 205.921C160.449 205.921 160.663 205.887 160.863 205.819C161.066 205.751 161.253 205.636 161.423 205.474L161.661 205.79C161.472 205.957 161.251 206.083 160.998 206.17C160.746 206.253 160.482 206.294 160.206 206.294ZM161.259 205.74V204.279H161.661V205.79L161.259 205.74ZM165.923 206.294C165.418 206.294 165.02 206.149 164.729 205.858C164.439 205.568 164.293 205.138 164.293 204.568V202.298H164.712V204.551C164.712 205.019 164.818 205.364 165.029 205.587C165.241 205.809 165.539 205.921 165.923 205.921C166.312 205.921 166.612 205.809 166.823 205.587C167.035 205.364 167.14 205.019 167.14 204.551V202.298H167.548V204.568C167.548 205.138 167.403 205.568 167.112 205.858C166.825 206.149 166.429 206.294 165.923 206.294ZM168.81 206.26V202.298H170.293C170.629 202.298 170.917 202.353 171.159 202.462C171.4 202.568 171.585 202.723 171.714 202.927C171.846 203.127 171.912 203.37 171.912 203.657C171.912 203.936 171.846 204.177 171.714 204.381C171.585 204.581 171.4 204.736 171.159 204.845C170.917 204.955 170.629 205.009 170.293 205.009H169.042L169.229 204.811V206.26H168.81ZM169.229 204.845L169.042 204.642H170.282C170.678 204.642 170.978 204.557 171.182 204.387C171.389 204.213 171.493 203.97 171.493 203.657C171.493 203.34 171.389 203.094 171.182 202.921C170.978 202.747 170.678 202.661 170.282 202.661H169.042L169.229 202.462V204.845Z" fill="#E8E8E3"/>
<path d="M144.19 90.3343L125.687 90.2504L125.672 93.6459L144.175 93.7299L144.19 90.3343Z" fill="#4CAF4F"/>
<path opacity="0.1" d="M144.19 90.3343L125.687 90.2504L125.672 93.6459L144.175 93.7299L144.19 90.3343Z" fill="black"/>
<path d="M198.43 111.183C198.576 111.168 198.718 111.134 198.855 111.082C199.054 111.004 199.227 110.872 199.354 110.7C199.482 110.528 199.558 110.324 199.574 110.111C199.574 108.967 199.574 107.298 199.574 105.154C199.574 104.082 199.574 102.881 199.574 101.557C199.574 101.233 199.574 100.895 199.574 100.557C199.621 100.229 199.55 99.8948 199.373 99.6146C199.274 99.4802 199.145 99.3706 198.996 99.2945C198.848 99.2183 198.684 99.1777 198.517 99.1757H197.395H186.999L126.828 98.9527C126.674 98.9501 126.522 98.9847 126.384 99.0536C126.246 99.1225 126.127 99.2236 126.037 99.3484C125.863 99.6298 125.796 99.9644 125.85 100.291C125.85 101.01 125.85 101.73 125.85 102.449C125.85 103.888 125.85 105.327 125.85 106.765C125.85 107.485 125.85 108.204 125.85 108.924C125.82 109.259 125.82 109.596 125.85 109.931C125.887 110.075 125.958 110.208 126.055 110.32C126.152 110.432 126.274 110.521 126.411 110.578C126.552 110.635 126.704 110.662 126.857 110.657H130.519L146.497 110.744L173.546 110.909L191.783 111.053L196.74 111.111H198.028C198.323 111.111 198.466 111.111 198.466 111.111H198.028H196.74H191.783H173.546L146.497 111.024L130.519 110.96H126.857C126.655 110.968 126.454 110.933 126.267 110.859C126.077 110.778 125.909 110.655 125.774 110.499C125.64 110.343 125.542 110.159 125.49 109.96C125.448 109.771 125.434 109.577 125.447 109.384V108.852C125.447 108.132 125.447 107.413 125.447 106.694C125.447 105.255 125.447 103.816 125.447 102.377C125.447 101.658 125.447 100.938 125.447 100.219C125.433 100.027 125.433 99.8349 125.447 99.6433C125.474 99.4317 125.555 99.2308 125.684 99.0606C125.808 98.887 125.972 98.7459 126.163 98.6495C126.353 98.553 126.564 98.504 126.778 98.5067L186.949 98.8376L197.344 98.9096H198.466C198.664 98.9097 198.859 98.9575 199.034 99.0489C199.21 99.1404 199.36 99.2727 199.474 99.4347C199.676 99.7475 199.758 100.123 199.704 100.492C199.704 100.83 199.704 101.168 199.704 101.492C199.704 102.802 199.704 104.003 199.704 105.089C199.704 107.247 199.653 108.902 199.639 110.053C199.621 110.274 199.541 110.486 199.407 110.663C199.273 110.84 199.092 110.976 198.884 111.053C198.748 111.138 198.591 111.182 198.43 111.183Z" fill="#E0E0E0"/>
<path d="M165.086 102.564H131.245V105.737H165.086V102.564Z" fill="#4CAF4F"/>
<path opacity="0.2" d="M165.086 102.564H131.245V105.737H165.086V102.564Z" fill="white"/>
<path d="M144.064 121.311L125.561 121.227L125.546 124.623L144.049 124.707L144.064 121.311Z" fill="#4CAF4F"/>
<path opacity="0.1" d="M144.064 121.311L125.561 121.227L125.546 124.623L144.049 124.707L144.064 121.311Z" fill="black"/>
<path d="M197.963 142.16C198.108 142.142 198.252 142.116 198.395 142.081C198.595 142.017 198.78 141.911 198.937 141.769C199.093 141.628 199.217 141.454 199.301 141.261C199.414 140.97 199.459 140.658 199.43 140.347C199.43 140.002 199.43 139.628 199.43 139.211C199.43 138.376 199.43 137.426 199.43 136.333V131.765C199.465 131.434 199.392 131.101 199.222 130.815C199.044 130.522 198.765 130.304 198.438 130.204C198.079 130.14 197.714 130.12 197.351 130.146H186.999L127.037 129.923C126.714 129.924 126.403 130.042 126.161 130.255C125.918 130.468 125.762 130.761 125.72 131.081C125.72 131.765 125.72 132.52 125.72 133.24C125.72 134.678 125.72 136.117 125.72 137.556C125.72 138.275 125.72 138.995 125.72 139.714C125.693 140.05 125.708 140.389 125.763 140.721C125.853 141.013 126.038 141.266 126.288 141.441C126.554 141.609 126.866 141.69 127.18 141.671H128.18H130.26L146.18 141.75L173.136 141.916L191.308 142.059L196.251 142.117H191.308H173.136L146.166 142.088L130.245 142.031H127.116C126.727 142.054 126.34 141.95 126.015 141.736C125.688 141.509 125.449 141.176 125.339 140.793C125.274 140.428 125.255 140.056 125.281 139.685C125.281 138.966 125.281 138.247 125.281 137.527C125.281 136.088 125.281 134.65 125.281 133.211C125.281 132.491 125.281 131.772 125.281 131.053C125.334 130.641 125.534 130.263 125.846 129.989C126.157 129.715 126.557 129.564 126.972 129.563L186.934 129.894L197.287 129.973C197.672 129.95 198.059 129.976 198.438 130.053C198.811 130.175 199.127 130.431 199.323 130.772C199.509 131.089 199.589 131.457 199.553 131.822C199.553 132.16 199.553 132.491 199.553 132.822C199.553 134.124 199.553 135.319 199.553 136.419C199.553 137.52 199.553 138.448 199.553 139.297C199.553 139.707 199.553 140.088 199.553 140.441C199.579 140.762 199.527 141.086 199.402 141.383C199.308 141.582 199.173 141.758 199.006 141.899C198.838 142.041 198.642 142.145 198.43 142.203C198.273 142.216 198.115 142.202 197.963 142.16Z" fill="#E0E0E0"/>
<path d="M143.925 153.633L125.422 153.549L125.406 156.945L143.909 157.029L143.925 153.633Z" fill="#4CAF4F"/>
<path opacity="0.1" d="M143.925 153.633L125.422 153.549L125.406 156.945L143.909 157.029L143.925 153.633Z" fill="black"/>
<path d="M197.819 174.469C197.964 174.452 198.109 174.425 198.251 174.39C198.451 174.326 198.635 174.221 198.791 174.081C198.947 173.94 199.072 173.769 199.157 173.577C199.27 173.286 199.314 172.974 199.287 172.663C199.287 172.311 199.287 171.944 199.287 171.519C199.287 170.692 199.287 169.735 199.287 168.642V164.073C199.321 163.743 199.248 163.41 199.078 163.124C198.896 162.836 198.618 162.622 198.294 162.519C197.936 162.453 197.571 162.431 197.208 162.455H186.855L126.893 162.232C126.57 162.232 126.259 162.35 126.017 162.563C125.775 162.776 125.618 163.07 125.576 163.39C125.576 164.109 125.576 164.829 125.576 165.548C125.576 166.987 125.576 168.426 125.576 169.865C125.576 170.584 125.576 171.303 125.576 172.023C125.549 172.357 125.564 172.692 125.619 173.023C125.706 173.316 125.891 173.571 126.145 173.742C126.409 173.915 126.722 173.995 127.037 173.972H130.166L146.087 174.059L173.043 174.224L191.215 174.368L196.157 174.426H191.215H173.043L146.087 174.346L130.166 174.282H127.037C126.647 174.308 126.26 174.204 125.936 173.987C125.609 173.76 125.37 173.427 125.26 173.044C125.195 172.679 125.176 172.307 125.202 171.936C125.202 171.217 125.202 170.498 125.202 169.778C125.202 168.339 125.202 166.901 125.202 165.462C125.202 164.742 125.202 164.023 125.202 163.268C125.253 162.857 125.452 162.479 125.762 162.205C126.072 161.93 126.472 161.779 126.886 161.778L186.848 162.109L197.2 162.189C197.586 162.165 197.973 162.191 198.351 162.268C198.725 162.39 199.04 162.646 199.236 162.987C199.422 163.304 199.503 163.672 199.466 164.037C199.466 164.375 199.466 164.714 199.466 165.037C199.466 166.339 199.466 167.534 199.466 168.634C199.466 169.735 199.466 170.663 199.466 171.512C199.466 171.922 199.466 172.303 199.466 172.656C199.494 172.978 199.442 173.301 199.315 173.598C199.222 173.797 199.087 173.973 198.919 174.114C198.752 174.256 198.556 174.36 198.344 174.418C198.175 174.476 197.996 174.493 197.819 174.469Z" fill="#E0E0E0"/>
<path d="M164.364 134.439L130.523 134.285L130.509 137.458L164.349 137.611L164.364 134.439Z" fill="#4CAF4F"/>
<path opacity="0.2" d="M164.364 134.439L130.523 134.285L130.509 137.458L164.349 137.611L164.364 134.439Z" fill="white"/>
<path d="M133.583 168.598C133.562 168.888 133.456 169.165 133.279 169.394C133.102 169.624 132.861 169.797 132.587 169.891C132.313 169.986 132.017 169.997 131.736 169.925C131.455 169.853 131.201 169.699 131.006 169.484C130.812 169.269 130.684 169.002 130.64 168.715C130.596 168.428 130.637 168.135 130.759 167.871C130.88 167.607 131.076 167.385 131.322 167.232C131.568 167.078 131.854 167.001 132.144 167.008C132.545 167.031 132.921 167.21 133.19 167.508C133.46 167.806 133.601 168.197 133.583 168.598Z" fill="#4CAF4F"/>
<path d="M138.166 168.62C138.18 168.823 138.152 169.026 138.084 169.218C138.016 169.41 137.91 169.585 137.771 169.734C137.633 169.883 137.465 170.001 137.278 170.082C137.092 170.163 136.891 170.205 136.687 170.205C136.484 170.205 136.283 170.163 136.097 170.082C135.91 170.001 135.742 169.883 135.604 169.734C135.465 169.585 135.358 169.41 135.29 169.218C135.223 169.026 135.195 168.823 135.209 168.62C135.195 168.417 135.223 168.214 135.29 168.022C135.358 167.83 135.465 167.655 135.604 167.506C135.742 167.357 135.91 167.239 136.097 167.158C136.283 167.077 136.484 167.035 136.687 167.035C136.891 167.035 137.092 167.077 137.278 167.158C137.465 167.239 137.633 167.357 137.771 167.506C137.91 167.655 138.016 167.83 138.084 168.022C138.152 168.214 138.18 168.417 138.166 168.62Z" fill="#4CAF4F"/>
<path d="M142.756 168.642C142.734 168.931 142.629 169.208 142.452 169.438C142.275 169.667 142.034 169.84 141.759 169.935C141.485 170.029 141.189 170.041 140.908 169.968C140.627 169.896 140.374 169.743 140.179 169.528C139.984 169.312 139.857 169.045 139.813 168.758C139.769 168.471 139.81 168.178 139.931 167.914C140.052 167.651 140.248 167.428 140.495 167.275C140.741 167.122 141.027 167.044 141.317 167.052C141.717 167.076 142.092 167.256 142.361 167.553C142.63 167.85 142.771 168.241 142.756 168.642Z" fill="#4CAF4F"/>
<path d="M147.338 168.663C147.317 168.953 147.211 169.229 147.034 169.459C146.857 169.689 146.617 169.862 146.342 169.956C146.068 170.051 145.772 170.062 145.491 169.99C145.21 169.918 144.956 169.764 144.761 169.549C144.567 169.334 144.439 169.066 144.395 168.78C144.351 168.493 144.393 168.199 144.514 167.936C144.635 167.672 144.831 167.45 145.077 167.297C145.323 167.143 145.609 167.066 145.899 167.073C146.3 167.097 146.674 167.277 146.943 167.575C147.212 167.872 147.354 168.263 147.338 168.663Z" fill="#4CAF4F"/>
<path d="M151.921 168.677C151.901 168.967 151.796 169.245 151.62 169.476C151.444 169.707 151.204 169.881 150.929 169.976C150.655 170.071 150.358 170.084 150.077 170.012C149.795 169.941 149.541 169.788 149.346 169.573C149.15 169.358 149.022 169.091 148.978 168.803C148.933 168.516 148.974 168.223 149.095 167.959C149.216 167.695 149.412 167.472 149.659 167.318C149.905 167.165 150.192 167.087 150.482 167.095C150.881 167.119 151.255 167.298 151.523 167.594C151.792 167.889 151.935 168.278 151.921 168.677Z" fill="#4CAF4F"/>
<path d="M156.511 168.699C156.491 168.987 156.388 169.264 156.213 169.494C156.038 169.724 155.8 169.898 155.528 169.995C155.256 170.092 154.961 170.107 154.68 170.038C154.399 169.969 154.145 169.82 153.948 169.609C153.751 169.397 153.62 169.133 153.571 168.848C153.523 168.563 153.558 168.27 153.674 168.006C153.79 167.741 153.98 167.515 154.222 167.357C154.464 167.199 154.747 167.116 155.036 167.116C155.441 167.131 155.824 167.306 156.1 167.603C156.377 167.9 156.524 168.294 156.511 168.699Z" fill="#4CAF4F"/>
<path d="M161.093 168.721C161.107 168.923 161.08 169.127 161.012 169.319C160.944 169.51 160.837 169.686 160.699 169.835C160.56 169.983 160.392 170.102 160.206 170.183C160.019 170.264 159.818 170.306 159.615 170.306C159.412 170.306 159.21 170.264 159.024 170.183C158.838 170.102 158.67 169.983 158.531 169.835C158.392 169.686 158.286 169.51 158.218 169.319C158.15 169.127 158.122 168.923 158.137 168.721C158.122 168.518 158.15 168.314 158.218 168.123C158.286 167.931 158.392 167.755 158.531 167.607C158.67 167.458 158.838 167.339 159.024 167.258C159.21 167.177 159.412 167.135 159.615 167.135C159.818 167.135 160.019 167.177 160.206 167.258C160.392 167.339 160.56 167.458 160.699 167.607C160.837 167.755 160.944 167.931 161.012 168.123C161.08 168.314 161.107 168.518 161.093 168.721Z" fill="#4CAF4F"/>
<path d="M165.676 168.742C165.656 169.031 165.553 169.307 165.378 169.537C165.204 169.767 164.965 169.941 164.693 170.038C164.421 170.135 164.126 170.15 163.845 170.081C163.565 170.012 163.31 169.863 163.113 169.652C162.916 169.44 162.785 169.176 162.737 168.891C162.688 168.606 162.724 168.313 162.839 168.049C162.955 167.784 163.145 167.558 163.387 167.401C163.629 167.243 163.912 167.159 164.201 167.16C164.606 167.175 164.989 167.35 165.266 167.646C165.542 167.943 165.69 168.337 165.676 168.742Z" fill="#4CAF4F"/>
<path d="M170.259 168.764C170.239 169.054 170.134 169.331 169.958 169.562C169.781 169.793 169.541 169.967 169.267 170.062C168.992 170.158 168.696 170.17 168.415 170.099C168.133 170.027 167.879 169.874 167.683 169.66C167.488 169.445 167.36 169.177 167.316 168.89C167.271 168.603 167.312 168.309 167.433 168.045C167.554 167.781 167.75 167.558 167.997 167.405C168.243 167.251 168.529 167.173 168.82 167.181C169.219 167.205 169.592 167.384 169.861 167.68C170.13 167.976 170.272 168.365 170.259 168.764Z" fill="#4CAF4F"/>
<g opacity="0.2">
<path d="M133.583 168.598C133.562 168.888 133.456 169.165 133.279 169.394C133.102 169.624 132.861 169.797 132.587 169.891C132.313 169.986 132.017 169.997 131.736 169.925C131.455 169.853 131.201 169.699 131.006 169.484C130.812 169.269 130.684 169.002 130.64 168.715C130.596 168.428 130.637 168.135 130.759 167.871C130.88 167.607 131.076 167.385 131.322 167.232C131.568 167.078 131.854 167.001 132.144 167.008C132.545 167.031 132.921 167.21 133.19 167.508C133.46 167.806 133.601 168.197 133.583 168.598Z" fill="white"/>
<path d="M138.166 168.62C138.18 168.823 138.152 169.026 138.084 169.218C138.016 169.41 137.91 169.585 137.771 169.734C137.633 169.883 137.465 170.001 137.278 170.082C137.092 170.163 136.891 170.205 136.687 170.205C136.484 170.205 136.283 170.163 136.097 170.082C135.91 170.001 135.742 169.883 135.604 169.734C135.465 169.585 135.358 169.41 135.29 169.218C135.223 169.026 135.195 168.823 135.209 168.62C135.195 168.417 135.223 168.214 135.29 168.022C135.358 167.83 135.465 167.655 135.604 167.506C135.742 167.357 135.91 167.239 136.097 167.158C136.283 167.077 136.484 167.035 136.687 167.035C136.891 167.035 137.092 167.077 137.278 167.158C137.465 167.239 137.633 167.357 137.771 167.506C137.91 167.655 138.016 167.83 138.084 168.022C138.152 168.214 138.18 168.417 138.166 168.62Z" fill="white"/>
<path d="M142.756 168.642C142.734 168.931 142.629 169.208 142.452 169.438C142.275 169.667 142.034 169.84 141.759 169.935C141.485 170.029 141.189 170.041 140.908 169.968C140.627 169.896 140.374 169.743 140.179 169.528C139.984 169.312 139.857 169.045 139.813 168.758C139.769 168.471 139.81 168.178 139.931 167.914C140.052 167.651 140.248 167.428 140.495 167.275C140.741 167.122 141.027 167.044 141.317 167.052C141.717 167.076 142.092 167.256 142.361 167.553C142.63 167.85 142.771 168.241 142.756 168.642Z" fill="white"/>
<path d="M147.338 168.663C147.317 168.952 147.211 169.229 147.034 169.459C146.857 169.689 146.617 169.862 146.342 169.956C146.068 170.05 145.772 170.062 145.491 169.99C145.21 169.917 144.956 169.764 144.761 169.549C144.567 169.334 144.439 169.066 144.395 168.78C144.351 168.493 144.393 168.199 144.514 167.936C144.635 167.672 144.831 167.45 145.077 167.296C145.323 167.143 145.609 167.065 145.899 167.073C146.3 167.097 146.674 167.277 146.943 167.575C147.212 167.872 147.354 168.263 147.338 168.663Z" fill="white"/>
<path d="M151.921 168.677C151.901 168.967 151.796 169.245 151.62 169.476C151.444 169.707 151.204 169.881 150.929 169.976C150.655 170.071 150.358 170.084 150.077 170.012C149.795 169.941 149.541 169.788 149.346 169.573C149.15 169.358 149.022 169.091 148.978 168.803C148.933 168.516 148.974 168.223 149.095 167.959C149.216 167.695 149.412 167.472 149.659 167.318C149.905 167.165 150.192 167.087 150.482 167.095C150.881 167.119 151.255 167.298 151.523 167.594C151.792 167.889 151.935 168.278 151.921 168.677Z" fill="white"/>
<path d="M156.511 168.699C156.491 168.987 156.388 169.264 156.213 169.494C156.038 169.724 155.8 169.898 155.528 169.995C155.255 170.092 154.961 170.107 154.68 170.038C154.399 169.969 154.145 169.82 153.948 169.609C153.751 169.397 153.62 169.133 153.571 168.848C153.523 168.563 153.558 168.27 153.674 168.005C153.79 167.741 153.98 167.515 154.222 167.357C154.464 167.199 154.747 167.116 155.036 167.116C155.441 167.131 155.824 167.306 156.1 167.603C156.377 167.9 156.524 168.294 156.511 168.699Z" fill="white"/>
<path d="M161.093 168.721C161.107 168.923 161.08 169.127 161.012 169.319C160.944 169.51 160.837 169.686 160.699 169.835C160.56 169.983 160.392 170.102 160.206 170.183C160.019 170.264 159.818 170.306 159.615 170.306C159.412 170.306 159.21 170.264 159.024 170.183C158.838 170.102 158.67 169.983 158.531 169.835C158.392 169.686 158.286 169.51 158.218 169.319C158.15 169.127 158.122 168.923 158.137 168.721C158.122 168.518 158.15 168.314 158.218 168.123C158.286 167.931 158.392 167.755 158.531 167.607C158.67 167.458 158.838 167.339 159.024 167.258C159.21 167.177 159.412 167.135 159.615 167.135C159.818 167.135 160.019 167.177 160.206 167.258C160.392 167.339 160.56 167.458 160.699 167.607C160.837 167.755 160.944 167.931 161.012 168.123C161.08 168.314 161.107 168.518 161.093 168.721Z" fill="white"/>
<path d="M165.676 168.742C165.656 169.031 165.553 169.307 165.378 169.537C165.204 169.767 164.965 169.941 164.693 170.038C164.421 170.135 164.126 170.15 163.845 170.081C163.565 170.012 163.31 169.863 163.113 169.652C162.916 169.44 162.785 169.176 162.737 168.891C162.688 168.606 162.724 168.313 162.839 168.049C162.955 167.784 163.145 167.558 163.387 167.401C163.629 167.243 163.912 167.159 164.201 167.16C164.606 167.175 164.989 167.35 165.266 167.646C165.542 167.943 165.69 168.337 165.676 168.742Z" fill="white"/>
<path d="M170.259 168.764C170.239 169.054 170.134 169.331 169.958 169.562C169.781 169.793 169.541 169.967 169.267 170.062C168.992 170.158 168.696 170.17 168.415 170.099C168.133 170.027 167.879 169.874 167.683 169.659C167.488 169.444 167.36 169.177 167.316 168.89C167.271 168.603 167.312 168.309 167.433 168.045C167.554 167.781 167.75 167.558 167.997 167.405C168.243 167.251 168.529 167.173 168.82 167.181C169.219 167.205 169.592 167.384 169.861 167.68C170.13 167.975 170.272 168.364 170.259 168.764Z" fill="white"/>
</g>
<path d="M163.748 64.9104C164.248 64.6903 164.672 64.3282 164.967 63.8689C165.263 63.4097 165.417 62.8738 165.41 62.3277C165.428 61.9728 165.375 61.6178 165.252 61.2843C165.129 60.9508 164.939 60.6459 164.694 60.388C164.45 60.1302 164.155 59.9249 163.828 59.7846C163.502 59.6443 163.15 59.5719 162.795 59.5719C162.439 59.5719 162.088 59.6443 161.761 59.7846C161.434 59.9249 161.14 60.1302 160.895 60.388C160.65 60.6459 160.461 60.9508 160.338 61.2843C160.215 61.6178 160.161 61.9728 160.18 62.3277C160.169 62.8792 160.321 63.4216 160.618 63.8864C160.915 64.3512 161.344 64.7175 161.849 64.9392C157.82 65.5435 158 69.9175 158 69.9175L167.525 69.9606C167.525 69.9606 167.748 65.5075 163.748 64.9104Z" fill="#4CAF4F"/>
<path opacity="0.1" d="M163.748 64.9104C164.248 64.6903 164.672 64.3282 164.967 63.8689C165.263 63.4097 165.417 62.8738 165.41 62.3277C165.428 61.9728 165.375 61.6178 165.252 61.2843C165.129 60.9508 164.939 60.6459 164.694 60.388C164.45 60.1302 164.155 59.9249 163.828 59.7846C163.502 59.6443 163.15 59.5719 162.795 59.5719C162.439 59.5719 162.088 59.6443 161.761 59.7846C161.434 59.9249 161.14 60.1302 160.895 60.388C160.65 60.6459 160.461 60.9508 160.338 61.2843C160.215 61.6178 160.161 61.9728 160.18 62.3277C160.169 62.8792 160.321 63.4216 160.618 63.8864C160.915 64.3512 161.344 64.7175 161.849 64.9392C157.82 65.5435 158 69.9175 158 69.9175L167.525 69.9606C167.525 69.9606 167.748 65.5075 163.748 64.9104Z" fill="black"/>
<path d="M179.226 72.7817L145.277 72.6277L145.259 76.6851L179.207 76.8391L179.226 72.7817Z" fill="#4CAF4F"/>
<path opacity="0.2" d="M179.226 72.7817L145.277 72.6277L145.259 76.6851L179.207 76.8391L179.226 72.7817Z" fill="white"/>
<path d="M54.4198 93.8089H54.0816L53.1033 93.8808C52.5738 93.9126 52.0473 93.9824 51.5278 94.0895C51.1913 94.1367 50.8575 94.2015 50.5278 94.2837L49.4127 94.593C47.5148 95.1753 45.7241 96.0622 44.1107 97.2189C41.979 98.7662 40.199 100.747 38.8878 103.032C38.1171 104.349 37.5038 105.751 37.0605 107.211C36.5947 108.798 36.3265 110.436 36.262 112.089C36.2191 112.957 36.2335 113.827 36.3051 114.693C36.3051 115.132 36.4274 115.571 36.485 116.017C36.5334 116.467 36.6176 116.912 36.7368 117.348C37.3837 120.235 38.6963 122.93 40.5698 125.22C42.4434 127.509 44.8261 129.329 47.5279 130.535C49.4833 131.378 51.5792 131.849 53.7076 131.923C55.9059 132.044 58.1064 131.729 60.1822 130.995L60.8153 130.758H60.9016L60.9736 130.801L70.0453 135.405L69.7791 135.635C68.8079 132.628 67.8727 129.714 66.9662 126.916V126.808L67.0453 126.729C69.246 124.512 70.8797 121.798 71.8078 118.815C72.6485 116.089 72.8938 113.214 72.5272 110.384C72.2012 107.869 71.3926 105.441 70.146 103.233C69.0714 101.336 67.6852 99.6339 66.0454 98.1973C64.6925 97.0602 63.1951 96.1071 61.5922 95.3628C60.3794 94.8397 59.1163 94.442 57.8226 94.1758L56.3837 93.9384L55.3406 93.8593L54.7075 93.8161H54.4917C54.5634 93.8081 54.6358 93.8081 54.7075 93.8161H55.3478L56.3909 93.8593L57.8298 94.0679C59.1396 94.3146 60.4199 94.698 61.6498 95.2117C63.2802 95.9472 64.8046 96.8981 66.1821 98.039C67.852 99.4692 69.2676 101.172 70.369 103.075C71.651 105.307 72.4844 107.768 72.8222 110.319C73.2192 113.193 72.9909 116.118 72.1531 118.895C71.2189 121.939 69.56 124.711 67.3187 126.974L67.3619 126.786C68.2683 129.585 69.2108 132.499 70.1892 135.498L70.3258 135.937L69.9158 135.729L60.8441 131.132H61.0023L60.3549 131.369C58.239 132.114 55.9978 132.436 53.7579 132.319C51.5836 132.236 49.4439 131.748 47.4487 130.88C43.6429 129.25 40.4764 126.417 38.4346 122.815C37.495 121.152 36.8088 119.358 36.3986 117.492C36.2863 117.044 36.2022 116.59 36.1469 116.132C36.0893 115.679 35.9958 115.233 35.9742 114.787C35.7795 112.227 36.05 109.653 36.7727 107.19C37.2271 105.71 37.8575 104.29 38.6504 102.96C39.9929 100.654 41.8099 98.6609 43.9812 97.111C45.6212 95.9513 47.4419 95.0713 49.3695 94.5067L50.499 94.219C50.8314 94.1418 51.1676 94.0818 51.5062 94.0391C52.0311 93.9419 52.5625 93.8842 53.0961 93.8664L54.0816 93.8305C54.1937 93.8154 54.3067 93.8082 54.4198 93.8089Z" fill="#4CAF4F"/>
<path d="M58.5203 110.586H57.1894L54.3118 106.542V103.888C54.3118 103.888 52.2543 103.758 52.4989 107.233C52.7435 110.708 52.4989 109.823 52.4989 109.823C52.4989 109.823 48.1321 109.823 47.7724 110.219C47.4127 110.614 47.3911 114.83 47.3408 117.182C47.3132 117.75 47.4759 118.31 47.8031 118.774C48.1302 119.238 48.6031 119.579 49.1465 119.744C49.2988 119.786 49.456 119.808 49.6141 119.808C50.7076 119.808 56.2686 118.923 56.2686 118.923H58.5635L58.5203 110.586Z" fill="#4CAF4F"/>
<path d="M62.3261 109.873L61.5059 118.966H59.2326V110.06L62.3261 109.873Z" fill="#4CAF4F"/>
<path d="M89.4404 294.998V288.847L78.4119 288.768L78.3184 298.07L79.0019 298.12C82.0449 298.314 94.4835 298.602 96.5266 297.969C98.7999 297.264 89.4404 294.998 89.4404 294.998Z" fill="#4CAF4F"/>
<path d="M96.7856 297.394C96.7856 297.494 92.6562 297.581 87.57 297.581C82.4838 297.581 78.3544 297.494 78.3544 297.394C78.3544 297.293 82.4838 297.207 87.57 297.207C92.6562 297.207 96.7856 297.293 96.7856 297.394Z" fill="#263238"/>
<path d="M89.6347 296.257C89.5411 296.207 89.6347 295.883 89.8577 295.538C90.0807 295.192 90.3828 295.048 90.4548 295.12C90.5267 295.192 90.3756 295.466 90.1598 295.761C89.944 296.056 89.7282 296.307 89.6347 296.257Z" fill="#263238"/>
<path d="M90.3397 296.66C90.239 296.66 90.2893 296.257 90.5052 295.876C90.721 295.494 91.0087 295.264 91.0879 295.322C91.167 295.379 91.0375 295.703 90.8361 296.041C90.6347 296.379 90.4332 296.696 90.3397 296.66Z" fill="#263238"/>
<path d="M81.6781 297.365C81.6349 297.365 81.4694 297.235 81.232 296.962C80.9422 296.611 80.6194 296.288 80.268 295.998C79.9225 295.722 79.5108 295.541 79.0738 295.473C78.7357 295.43 78.5199 295.473 78.4983 295.43C78.4767 295.386 78.6853 295.235 79.081 295.207C79.6032 295.196 80.1126 295.369 80.5198 295.696C80.9014 296.007 81.2232 296.385 81.4694 296.811C81.6349 297.127 81.7212 297.336 81.6781 297.365Z" fill="#263238"/>
<path d="M89.6706 295.099C89.721 295.185 89.5339 295.401 89.2174 295.516C88.9008 295.631 88.6203 295.588 88.6059 295.516C88.5915 295.444 88.8145 295.293 89.0879 295.192C89.3613 295.092 89.613 295.012 89.6706 295.099Z" fill="#263238"/>
<path d="M89.498 294.502C89.498 294.609 89.2102 294.696 88.8361 294.703C88.462 294.71 88.1671 294.624 88.1743 294.523C88.1815 294.422 88.4764 294.329 88.8361 294.322C89.1958 294.315 89.4836 294.401 89.498 294.502Z" fill="#263238"/>
<path d="M116.598 294.998V288.847L105.57 288.768L105.476 297.976L106.159 298.027C109.203 298.221 121.648 298.602 123.684 297.969C125.958 297.264 116.598 294.998 116.598 294.998Z" fill="#4CAF4F"/>
<path d="M123.943 297.408C123.943 297.509 119.821 297.595 114.728 297.595C109.634 297.595 105.519 297.509 105.519 297.408C105.519 297.307 109.641 297.221 114.728 297.221C119.814 297.221 123.943 297.307 123.943 297.408Z" fill="#263238"/>
<path d="M116.792 296.257C116.706 296.207 116.792 295.883 117.015 295.538C117.238 295.192 117.54 295.048 117.612 295.12C117.684 295.192 117.533 295.466 117.317 295.761C117.102 296.056 116.886 296.307 116.792 296.257Z" fill="#263238"/>
<path d="M117.497 296.66C117.404 296.66 117.447 296.257 117.67 295.876C117.893 295.494 118.174 295.264 118.253 295.322C118.332 295.379 118.195 295.703 117.994 296.041C117.792 296.379 117.598 296.696 117.497 296.66Z" fill="#263238"/>
<path d="M108.836 297.365C108.792 297.365 108.634 297.235 108.39 296.962C108.1 296.611 107.777 296.288 107.426 295.998C107.08 295.722 106.668 295.541 106.231 295.473C105.9 295.43 105.677 295.473 105.656 295.43C105.634 295.386 105.843 295.235 106.239 295.207C106.761 295.196 107.27 295.369 107.677 295.696C108.061 296.005 108.383 296.383 108.627 296.811C108.792 297.127 108.879 297.336 108.836 297.365Z" fill="#263238"/>
<path d="M116.828 295.099C116.879 295.185 116.692 295.401 116.375 295.516C116.058 295.631 115.778 295.588 115.764 295.516C115.749 295.444 115.972 295.293 116.246 295.192C116.519 295.092 116.771 295.012 116.828 295.099Z" fill="#263238"/>
<path d="M116.67 294.502C116.67 294.609 116.382 294.696 116.008 294.703C115.634 294.71 115.346 294.624 115.353 294.523C115.361 294.422 115.648 294.329 116.008 294.322C116.368 294.315 116.67 294.401 116.67 294.502Z" fill="#263238"/>
<path d="M157.23 112.341C156.942 112.046 156.23 112.19 156.23 112.19C156.301 111.776 156.301 111.352 156.23 110.938C156.101 110.535 155.194 110.614 155.194 110.614C155.152 110.275 155.152 109.932 155.194 109.593C155.201 109.517 155.185 109.442 155.148 109.376C155.111 109.311 155.054 109.258 154.986 109.226C154.557 109.051 154.096 108.968 153.633 108.981C153.079 108.585 155.324 105.442 156.158 104.435C156.993 103.427 156.842 102.643 156.101 102.643C155.59 102.643 152.971 105.665 152.165 106.679C151.36 107.693 149.223 110.513 149.151 108.262C149.079 106.01 148.173 104.312 147.604 104.024C147.036 103.737 146.432 104.413 146.741 105.039C147.013 105.75 147.182 106.496 147.245 107.255C147.323 107.859 147.296 108.472 147.166 109.067C146.927 110.175 146.602 111.262 146.194 112.319H146.137C146.137 112.319 130.439 127.376 129.303 128.448C128.288 129.412 107.886 127.304 103.793 126.873C102.402 126.669 100.997 126.573 99.5912 126.585C97.8143 126.664 97.4978 126.916 95.728 126.938C91.2587 126.987 86.7997 127.379 82.3902 128.11C80.3936 128.45 78.5286 129.331 76.9986 130.658C75.4687 131.985 74.3325 133.707 73.7142 135.635C69.592 148.513 60.2541 178.994 58.6067 196.116C57.3618 198.373 56.2379 200.695 55.2398 203.072C54.0816 206.223 54.3622 206.331 54.7507 206.403C55.801 206.597 56.9952 200.943 57.4412 202.31C57.8873 203.677 55.1751 209.051 56.2758 209.209C57.7146 209.41 58.8585 203.454 58.9951 202.979C59.1318 202.504 59.844 202.655 59.7146 203.101C59.5059 203.734 57.4844 210.446 58.8944 210.662C59.6714 210.777 59.7577 209.36 59.7577 209.36C59.7577 209.36 61.1965 202.936 61.8512 203.065C62.5059 203.195 61.808 206.986 61.4771 208.252C61.1462 209.518 61.6066 210.158 62.2828 209.849C62.7432 209.633 63.8439 205.784 64.1461 204.533C64.4483 203.281 65.2036 199.813 66.218 201.821C67.2323 203.828 68.7719 204.993 69.405 205.022C69.5476 205.005 69.6821 204.947 69.791 204.853C69.9 204.76 69.9785 204.636 70.0164 204.497C70.0543 204.359 70.05 204.212 70.0038 204.076C69.9576 203.94 69.8718 203.821 69.7575 203.734C69.2129 203.202 68.7456 202.597 68.369 201.936C68.0334 201.42 67.79 200.851 67.6496 200.252C67.3597 199.059 67.191 197.839 67.146 196.612L67.0309 195.893C68.6424 187.914 73.2826 164.498 79.9802 149.541L82.7284 155.196L83.9226 159.383L76.599 177.461L107.836 177.051L103.174 159.109L108.836 140.405C114.958 140.541 130.677 140.772 133.295 139.585C136.59 138.146 153.633 116.621 153.633 116.621C154.744 115.758 155.808 114.836 156.82 113.859C156.82 113.859 157.856 112.988 157.23 112.341Z" fill="#FFBE9D"/>
<path d="M75.225 164.102C76.1314 161.009 80.786 145.714 80.786 145.714C80.786 145.714 83.0737 158.181 82.4694 159.685C81.9135 160.972 81.2568 162.213 80.5054 163.397C75.225 171.433 75.9156 175.454 75.9156 175.454L107.821 174.483C107.893 170.023 105.253 159.649 104.706 157.994C104.159 156.34 105.98 150.923 105.98 150.923C105.98 150.923 109.577 147.261 109.447 145.376C109.379 143.683 109.169 141.998 108.821 140.34L128.245 141.059L127.634 127.894L99.7351 125.103C98.764 127.844 89.98 126.499 89.98 126.499C80.4982 126.815 79.9083 128.556 75.966 131.621C72.0236 134.686 65.4986 160.987 65.4986 160.987L75.225 164.102Z" fill="#4CAF4F"/>
<path d="M94.0878 160.987C93.5349 161.086 92.9717 161.115 92.4116 161.073C91.3684 161.073 89.9368 161.001 88.3613 160.843C86.7858 160.685 85.3614 160.462 84.347 160.261C83.7877 160.188 83.2393 160.048 82.714 159.843C83.2764 159.843 83.8376 159.896 84.3902 160.002C85.4118 160.131 86.829 160.311 88.3973 160.469C89.9656 160.627 91.39 160.735 92.4188 160.807C92.9795 160.814 93.5384 160.875 94.0878 160.987Z" fill="#263238"/>
<path d="M96.2748 158.275C95.7217 158.546 95.1368 158.746 94.5338 158.872C91.6636 159.626 88.7025 159.977 85.7355 159.915C85.1215 159.935 84.5075 159.877 83.9082 159.742C84.5141 159.666 85.1249 159.635 85.7355 159.649C86.865 159.613 88.4189 159.534 90.1311 159.332C91.8432 159.131 93.3684 158.843 94.4475 158.613C95.0469 158.453 95.6578 158.34 96.2748 158.275Z" fill="#263238"/>
<path d="M107.008 146.174C106.994 146.723 106.919 147.268 106.785 147.8C106.598 148.8 106.31 150.167 105.944 151.664C105.577 153.16 105.224 154.541 104.908 155.476C104.78 156.012 104.592 156.531 104.346 157.023C104.387 156.476 104.488 155.936 104.649 155.412C104.922 154.289 105.231 152.994 105.577 151.577C105.922 150.16 106.253 148.865 106.526 147.743C106.624 147.203 106.786 146.676 107.008 146.174Z" fill="#263238"/>
<path d="M75.5631 162.268C73.8988 162.011 72.2563 161.628 70.6495 161.124C69.0078 160.74 67.3967 160.235 65.8295 159.613C67.493 159.874 69.1352 160.257 70.7431 160.757C72.3852 161.139 73.9964 161.644 75.5631 162.268Z" fill="#263238"/>
<path d="M109.167 140.182C108.895 140.229 108.618 140.229 108.346 140.182C107.595 140.105 106.857 139.928 106.152 139.657C104.975 139.214 103.904 138.531 103.007 137.65C102.11 136.769 101.407 135.71 100.944 134.542C100.431 133.256 100.213 131.872 100.303 130.491C100.336 129.352 100.676 128.243 101.289 127.283C101.72 126.636 102.364 126.16 103.109 125.938C103.308 125.883 103.514 125.856 103.721 125.858C103.865 125.858 103.936 125.858 103.936 125.858C103.936 125.858 103.634 125.858 103.152 126.053C102.469 126.305 101.889 126.779 101.505 127.398C100.526 128.937 100.253 131.75 101.296 134.376C101.782 135.614 102.542 136.726 103.519 137.628C104.32 138.366 105.243 138.96 106.246 139.383C107.187 139.755 108.167 140.023 109.167 140.182Z" fill="#263238"/>
<path d="M125.936 140.801C125.756 138.594 125.698 136.38 125.763 134.168C125.707 131.957 125.774 129.745 125.965 127.542C126.145 129.746 126.202 131.958 126.137 134.168C126.198 136.381 126.131 138.595 125.936 140.801Z" fill="#263238"/>
<path d="M99.5481 125.909C99.6272 124.305 99.7927 122.492 99.7927 122.492C99.7927 122.492 103.764 122.053 104.001 117.952C104.239 113.852 104.001 104.391 104.001 104.391L96.8071 100.708L88.8217 106.988L90.0519 127.491L97.3755 127.959C97.9353 127.975 98.4783 127.767 98.8856 127.383C99.2929 126.999 99.5311 126.469 99.5481 125.909Z" fill="#FFBE9D"/>
<path d="M100.26 114.708C100.26 114.708 100.26 114.787 100.196 114.88C100.142 114.948 100.073 115.002 99.9938 115.037C99.9148 115.072 99.8285 115.087 99.7423 115.082C99.2819 115.082 98.8358 114.549 98.6776 113.931C98.6023 113.631 98.6023 113.317 98.6776 113.017C98.6923 112.886 98.7395 112.761 98.8149 112.653C98.8903 112.545 98.9915 112.457 99.1092 112.398C99.206 112.358 99.3146 112.358 99.4114 112.398C99.4831 112.434 99.5412 112.492 99.5768 112.564C99.6272 112.686 99.5768 112.765 99.5768 112.758C99.5768 112.751 99.5768 112.686 99.5049 112.614C99.4673 112.563 99.412 112.527 99.3496 112.514C99.2872 112.5 99.2221 112.511 99.1668 112.542C99.0785 112.596 99.0052 112.67 98.9536 112.76C98.9021 112.849 98.8739 112.95 98.8718 113.053C98.8113 113.321 98.8113 113.598 98.8718 113.866C99.0157 114.427 99.4042 114.88 99.7495 114.923C99.817 114.933 99.8858 114.928 99.9514 114.909C100.017 114.891 100.078 114.859 100.131 114.816C100.217 114.758 100.246 114.7 100.26 114.708Z" fill="#EB996E"/>
<path d="M106.469 102.176C105.915 100.291 103.908 99.3555 102.08 98.8376C99.2963 98.0462 96.2892 97.7009 93.5698 98.7009C90.8505 99.7008 87.5844 101.456 87.5844 104.456C85.9801 104.327 85.0592 105.729 84.4262 107.47C84.0214 108.531 83.7789 109.647 83.7068 110.78C83.5053 114.708 82.4046 120.132 79.8579 123.01C78.4191 124.614 76.4264 125.722 75.6063 127.722C74.8868 129.455 75.2609 131.513 74.5919 133.268C73.9948 134.815 72.6783 135.916 71.7143 137.261C70.7321 138.787 70.1542 140.538 70.0346 142.349C69.9151 144.16 70.2579 145.971 71.0308 147.613C71.8093 149.213 72.9054 150.638 74.2523 151.8C75.5992 152.963 77.1687 153.839 78.8652 154.376C82.2255 155.398 85.809 155.433 89.1886 154.476C91.7251 153.87 94.0912 152.697 96.1093 151.045C98.1743 149.359 99.5925 147.01 100.124 144.398C100.634 141.462 99.8143 138.477 99.2028 135.556C97.2892 126.326 97.8359 125.844 100.253 117.276C100.311 117.125 100.339 116.967 100.383 116.816C100.426 116.664 100.447 116.593 100.476 116.477C100.545 116.139 100.581 115.794 100.584 115.449C100.231 115.58 99.8478 115.608 99.4795 115.529C99.1112 115.45 98.7731 115.267 98.505 115.003C98.2362 114.721 98.0488 114.371 97.9627 113.991C97.8766 113.611 97.8949 113.215 98.0158 112.844C98.1855 112.439 98.4384 112.074 98.7581 111.773C99.0779 111.472 99.4573 111.241 99.8718 111.096C100.67 110.765 101.526 110.593 102.311 110.226C103.972 109.434 105.123 107.794 105.908 106.075C106.552 104.883 106.751 103.501 106.469 102.176Z" fill="#263238"/>
<path d="M100.548 114.902C100.7 115.126 100.826 115.368 100.922 115.621C101.138 116.074 101.426 116.715 101.742 117.456L101.8 117.592H101.649L100.929 117.657C100.433 117.657 100.016 117.751 99.5265 117.744C99.4839 117.734 99.4444 117.714 99.4117 117.685C99.379 117.656 99.3541 117.619 99.3394 117.578C99.318 117.513 99.318 117.442 99.3394 117.377C99.3561 117.28 99.3777 117.184 99.4042 117.089L99.5337 116.578C99.5987 116.237 99.7 115.905 99.8358 115.585C99.8224 115.933 99.7718 116.278 99.6847 116.614L99.584 117.125C99.5481 117.297 99.4833 117.564 99.584 117.542C99.9437 117.542 100.455 117.463 100.929 117.434L101.649 117.369L101.555 117.528C101.246 116.808 100.987 116.132 100.836 115.664C100.703 115.426 100.606 115.169 100.548 114.902Z" fill="#4CAF4F"/>
<path d="M75.9156 175.454L107.821 174.483L121.706 228.683L119.152 290.854H102.282L104.347 230.007L92.0087 192.274L93.9079 293.264L76.858 293.516L75.0667 198.59C74.9876 195.95 74.1243 190.001 74.448 187.382L75.9156 175.454Z" fill="#263238"/>
<path d="M96.2532 193.044C95.731 193.077 95.2067 193.045 94.6921 192.95C93.7281 192.835 92.4116 192.634 90.9656 192.346C89.5196 192.058 88.2246 191.727 87.2894 191.461C86.7895 191.351 86.3058 191.177 85.8506 190.943C85.8506 190.835 88.1958 191.396 91.0735 191.979C93.9511 192.562 96.2676 192.936 96.2532 193.044Z" fill="#455A64"/>
<path d="M118.979 287.444C118.979 287.545 115.159 287.631 110.447 287.631C105.735 287.631 101.908 287.545 101.908 287.444C101.908 287.344 105.728 287.257 110.447 287.257C115.166 287.257 118.979 287.336 118.979 287.444Z" fill="#455A64"/>
<path d="M93.7569 290.638C93.7569 290.746 90.0448 290.825 85.4693 290.825C80.8939 290.825 77.189 290.746 77.189 290.638C77.189 290.53 80.9011 290.451 85.4693 290.451C90.0376 290.451 93.7569 290.538 93.7569 290.638Z" fill="#455A64"/>
<path d="M91.5555 290.379C91.4548 290.379 91.0088 268.315 90.5555 241.1C90.1023 213.885 89.8361 191.806 89.9296 191.806C90.0232 191.806 90.4836 213.863 90.9296 241.093C91.3757 268.322 91.6634 290.379 91.5555 290.379Z" fill="#455A64"/>
<path d="M116.713 287.444C116.705 287.346 116.705 287.248 116.713 287.149V286.286C116.713 285.509 116.771 284.394 116.814 282.977C116.915 280.099 117.058 275.919 117.238 270.797C117.627 260.495 118.174 246.294 118.771 230.618C118.771 230.467 118.771 230.323 118.771 230.194V230.244C114.994 215.137 111.577 201.425 109.095 191.504L106.217 179.771C105.886 178.397 105.634 177.325 105.454 176.577C105.368 176.224 105.311 175.951 105.26 175.742C105.232 175.648 105.215 175.552 105.21 175.454C105.247 175.545 105.276 175.639 105.296 175.735C105.354 175.936 105.426 176.21 105.526 176.555C105.721 177.274 106.001 178.368 106.361 179.735C107.08 182.512 108.095 186.512 109.361 191.44C111.864 201.353 115.317 215.029 119.145 230.158V230.208C119.145 230.338 119.145 230.489 119.145 230.633C118.504 246.309 117.922 260.503 117.497 270.804C117.274 275.934 117.087 280.085 116.958 282.977C116.886 284.416 116.828 285.509 116.792 286.286C116.792 286.653 116.749 286.941 116.742 287.149C116.743 287.248 116.733 287.347 116.713 287.444Z" fill="#455A64"/>
<path d="M111.21 228.928C109.998 229.326 108.75 229.603 107.483 229.755C105.929 230.021 104.606 230.208 104.008 230.237V230.093C104.203 230.151 104.303 230.187 104.303 230.215C104.303 230.244 104.181 230.215 103.98 230.215H103.548L103.98 230.086C104.541 229.921 105.864 229.647 107.418 229.367C108.665 229.096 109.935 228.949 111.21 228.928Z" fill="#455A64"/>
<path d="M110.915 230.992C109.793 231.044 108.668 230.993 107.555 230.841C106.431 230.818 105.312 230.696 104.21 230.474C106.458 230.291 108.721 230.466 110.915 230.992Z" fill="#455A64"/>
<path opacity="0.2" d="M75.7789 176.598C76.1568 177.083 76.6327 177.483 77.1757 177.772C77.7186 178.061 78.3164 178.232 78.9299 178.274C80.2149 178.427 81.5147 178.402 82.7931 178.202C91.0303 177.289 99.7567 176.447 107.821 174.483C97.3827 175.066 86.3542 174.872 75.9156 175.454L75.8077 176.346" fill="black"/>
<g opacity="0.2">
<path d="M86.534 191.31L92.4187 214.144L92.0087 192.274L86.534 191.31Z" fill="black"/>
</g>
</svg>
